<?xml version="1.0" encoding="UTF-8" standalone="no"?>
<svg
   xmlns:dc="http://purl.org/dc/elements/1.1/"
   xmlns:cc="http://creativecommons.org/ns#"
   xmlns:rdf="http://www.w3.org/1999/02/22-rdf-syntax-ns#"
   xmlns:svg="http://www.w3.org/2000/svg"
   xmlns="http://www.w3.org/2000/svg"
   xmlns:sodipodi="http://sodipodi.sourceforge.net/DTD/sodipodi-0.dtd"
   xmlns:inkscape="http://www.inkscape.org/namespaces/inkscape"
   width="210mm"
   height="297mm"
   viewBox="0 0 210 297"
   version="1.1"
   id="svg8"
   inkscape:version="1.0.2 (e86c870879, 2021-01-15)"
   sodipodi:docname="AALogo.svg"
   inkscape:export-filename="/home/aditya/Pictures/Inkscape/AALogo1.png"
   inkscape:export-xdpi="207.28444"
   inkscape:export-ydpi="207.28444">
  <defs
     id="defs2">
    <inkscape:path-effect
       effect="skeletal"
       id="path-effect954"
       is_visible="true"
       lpeversion="1"
       pattern="#rect940"
       copytype="repeated_stretched"
       prop_scale="1"
       scale_y_rel="false"
       spacing="2"
       normal_offset="0"
       tang_offset="0"
       prop_units="false"
       vertical_pattern="false"
       hide_knot="false"
       fuse_tolerance="0" />
  </defs>
  <sodipodi:namedview
     id="base"
     pagecolor="#ffffff"
     bordercolor="#666666"
     borderopacity="1.0"
     inkscape:pageopacity="0.0"
     inkscape:pageshadow="2"
     inkscape:zoom="0.5"
     inkscape:cx="9.1414696"
     inkscape:cy="417.76595"
     inkscape:document-units="px"
     inkscape:current-layer="layer1"
     inkscape:document-rotation="0"
     showgrid="false"
     showborder="false"
     inkscape:window-width="1366"
     inkscape:window-height="695"
     inkscape:window-x="0"
     inkscape:window-y="0"
     inkscape:window-maximized="1" />
  <metadata
     id="metadata5">
    <rdf:RDF>
      <cc:Work
         rdf:about="">
        <dc:format>image/svg+xml</dc:format>
        <dc:type
           rdf:resource="http://purl.org/dc/dcmitype/StillImage" />
        <dc:title />
      </cc:Work>
    </rdf:RDF>
  </metadata>
  <g
     inkscape:label="Layer 1"
     inkscape:groupmode="layer"
     id="layer1">
    <g
       id="path833"
       style="opacity:1"
       inkscape:export-xdpi="96"
       inkscape:export-ydpi="96">
      <path
         style="color:#000000;font-style:normal;font-variant:normal;font-weight:normal;font-stretch:normal;font-size:medium;line-height:normal;font-family:sans-serif;font-variant-ligatures:normal;font-variant-position:normal;font-variant-caps:normal;font-variant-numeric:normal;font-variant-alternates:normal;font-variant-east-asian:normal;font-feature-settings:normal;font-variation-settings:normal;text-indent:0;text-align:start;text-decoration:none;text-decoration-line:none;text-decoration-style:solid;text-decoration-color:#000000;letter-spacing:normal;word-spacing:normal;text-transform:none;writing-mode:lr-tb;direction:ltr;text-orientation:mixed;dominant-baseline:auto;baseline-shift:baseline;text-anchor:start;white-space:normal;shape-padding:0;shape-margin:0;inline-size:0;clip-rule:nonzero;display:inline;overflow:visible;visibility:visible;isolation:auto;mix-blend-mode:normal;color-interpolation:sRGB;color-interpolation-filters:linearRGB;solid-color:#000000;solid-opacity:1;vector-effect:none;fill:#ffffff;fill-opacity:1;fill-rule:nonzero;stroke:none;stroke-width:3.70417;stroke-linecap:butt;stroke-linejoin:miter;stroke-miterlimit:4;stroke-dasharray:none;stroke-dashoffset:0;stroke-opacity:1;color-rendering:auto;image-rendering:auto;shape-rendering:auto;text-rendering:auto;enable-background:accumulate;stop-color:#000000;stop-opacity:1"
         d="m 43.764909,121.40689 c 0,26.88526 -21.794809,48.68007 -48.6800692,48.68007 -26.8852598,0 -48.6800688,-21.79481 -48.6800688,-48.68007 0,-26.885259 21.794809,-48.680068 48.6800688,-48.680068 26.8852602,0 48.6800692,21.794809 48.6800692,48.680068 z"
         id="path1044" />
      <path
         style="color:#000000;font-style:normal;font-variant:normal;font-weight:normal;font-stretch:normal;font-size:medium;line-height:normal;font-family:sans-serif;font-variant-ligatures:normal;font-variant-position:normal;font-variant-caps:normal;font-variant-numeric:normal;font-variant-alternates:normal;font-variant-east-asian:normal;font-feature-settings:normal;font-variation-settings:normal;text-indent:0;text-align:start;text-decoration:none;text-decoration-line:none;text-decoration-style:solid;text-decoration-color:#000000;letter-spacing:normal;word-spacing:normal;text-transform:none;writing-mode:lr-tb;direction:ltr;text-orientation:mixed;dominant-baseline:auto;baseline-shift:baseline;text-anchor:start;white-space:normal;shape-padding:0;shape-margin:0;inline-size:0;clip-rule:nonzero;display:inline;overflow:visible;visibility:visible;isolation:auto;mix-blend-mode:normal;color-interpolation:sRGB;color-interpolation-filters:linearRGB;solid-color:#000000;solid-opacity:1;vector-effect:none;fill:#1a1a1a;fill-opacity:1;fill-rule:nonzero;stroke:none;stroke-linecap:butt;stroke-linejoin:miter;stroke-miterlimit:4;stroke-dasharray:none;stroke-dashoffset:0;stroke-opacity:1;color-rendering:auto;image-rendering:auto;shape-rendering:auto;text-rendering:auto;enable-background:accumulate;stop-color:#000000;stop-opacity:1"
         d="m -4.9160156,70.875 c -27.8862004,0 -50.5312504,22.645049 -50.5312504,50.53125 0,27.8862 22.64505,50.5332 50.5312504,50.5332 27.8862006,0 50.5332026,-22.647 50.5332036,-50.5332 0,-27.886201 -22.647003,-50.53125 -50.5332036,-50.53125 z m 0,3.703125 c 25.8843186,0 46.8281246,20.943806 46.8281246,46.828125 0,25.88432 -20.943806,46.82812 -46.8281246,46.82813 -25.8843184,0 -46.8261724,-20.94381 -46.8261724,-46.82813 0,-25.884319 20.941854,-46.828125 46.8261724,-46.828125 z"
         id="path1046" />
    </g>
    <g
       id="circle835"
       style="opacity:1"
       inkscape:export-xdpi="96"
       inkscape:export-ydpi="96">
      <path
         style="color:#000000;font-style:normal;font-variant:normal;font-weight:normal;font-stretch:normal;font-size:medium;line-height:normal;font-family:sans-serif;font-variant-ligatures:normal;font-variant-position:normal;font-variant-caps:normal;font-variant-numeric:normal;font-variant-alternates:normal;font-variant-east-asian:normal;font-feature-settings:normal;font-variation-settings:normal;text-indent:0;text-align:start;text-decoration:none;text-decoration-line:none;text-decoration-style:solid;text-decoration-color:#000000;letter-spacing:normal;word-spacing:normal;text-transform:none;writing-mode:lr-tb;direction:ltr;text-orientation:mixed;dominant-baseline:auto;baseline-shift:baseline;text-anchor:start;white-space:normal;shape-padding:0;shape-margin:0;inline-size:0;clip-rule:nonzero;display:inline;overflow:visible;visibility:visible;isolation:auto;mix-blend-mode:normal;color-interpolation:sRGB;color-interpolation-filters:linearRGB;solid-color:#000000;solid-opacity:1;vector-effect:none;fill:#ffffff;fill-opacity:1;fill-rule:nonzero;stroke:none;stroke-width:1.98438;stroke-linecap:butt;stroke-linejoin:miter;stroke-miterlimit:4;stroke-dasharray:none;stroke-dashoffset:0;stroke-opacity:1;color-rendering:auto;image-rendering:auto;shape-rendering:auto;text-rendering:auto;enable-background:accumulate;stop-color:#000000;stop-opacity:1"
         d="m 38.710269,121.40689 c 0,24.10685 -19.542459,43.6493 -43.6493035,43.6493 -24.1068445,0 -43.6493035,-19.54245 -43.6493035,-43.6493 0,-24.106844 19.542459,-43.649303 43.6493035,-43.649303 24.1068445,0 43.6493035,19.542459 43.6493035,43.649303 z"
         id="path1038" />
      <path
         style="color:#000000;font-style:normal;font-variant:normal;font-weight:normal;font-stretch:normal;font-size:medium;line-height:normal;font-family:sans-serif;font-variant-ligatures:normal;font-variant-position:normal;font-variant-caps:normal;font-variant-numeric:normal;font-variant-alternates:normal;font-variant-east-asian:normal;font-feature-settings:normal;font-variation-settings:normal;text-indent:0;text-align:start;text-decoration:none;text-decoration-line:none;text-decoration-style:solid;text-decoration-color:#000000;letter-spacing:normal;word-spacing:normal;text-transform:none;writing-mode:lr-tb;direction:ltr;text-orientation:mixed;dominant-baseline:auto;baseline-shift:baseline;text-anchor:start;white-space:normal;shape-padding:0;shape-margin:0;inline-size:0;clip-rule:nonzero;display:inline;overflow:visible;visibility:visible;isolation:auto;mix-blend-mode:normal;color-interpolation:sRGB;color-interpolation-filters:linearRGB;solid-color:#000000;solid-opacity:1;vector-effect:none;fill:#1a1a1a;fill-opacity:1;fill-rule:nonzero;stroke:none;stroke-linecap:butt;stroke-linejoin:miter;stroke-miterlimit:4;stroke-dasharray:none;stroke-dashoffset:0;stroke-opacity:1;color-rendering:auto;image-rendering:auto;shape-rendering:auto;text-rendering:auto;enable-background:accumulate;stop-color:#000000;stop-opacity:1"
         d="m -4.9394531,76.765625 c -24.6430639,0 -44.6406249,19.997561 -44.6406249,44.640625 0,24.64306 19.997561,44.64258 44.6406249,44.64258 24.6430641,0 44.6425781,-19.99952 44.6425781,-44.64258 0,-24.643064 -19.999514,-44.640625 -44.6425781,-44.640625 z m 0,1.984375 c 23.5706251,0 42.6582031,19.085625 42.6582031,42.65625 0,23.57063 -19.087578,42.6582 -42.6582031,42.6582 -23.5706249,0 -42.6562499,-19.08757 -42.6562499,-42.6582 0,-23.570625 19.085625,-42.65625 42.6562499,-42.65625 z"
         id="path1040" />
    </g>
    <path
       id="rect855"
       style="opacity:1;fill:#1a1a1a;stroke:none;stroke-width:7.50002;stroke-miterlimit:4;stroke-dasharray:none"
       d="m 265.49805,174.69531 -49.69336,19.48633 15.38281,4.94922 -124.78711,124.78711 a 183.98766,183.98766 0 0 1 9.875,9.875 l 124.78711,-124.78711 4.94922,15.38281 z m -419.10743,409.23242 -96.61914,96.61915 -19.875,-2.76758 -24.49414,24.49218 -24.49218,24.49414 28.54101,3.97657 3.97656,28.54297 24.49415,-24.49414 24.49218,-24.49414 -2.76758,-19.875 96.61914,-96.61915 a 183.98766,183.98766 0 0 1 -9.875,-9.875 z"
       transform="scale(0.26458333)"
       inkscape:export-xdpi="96"
       inkscape:export-ydpi="96" />
    <path
       id="path879"
       style="opacity:1;fill:#1a1a1a;stroke:none;stroke-width:7.50002;stroke-miterlimit:4;stroke-dasharray:none"
       d="m -319.08984,174.69531 19.48437,49.69336 4.94922,-15.38281 133.48242,133.48242 a 183.98766,183.98766 0 0 1 9.25586,-10.49414 l -132.86328,-132.86328 15.38281,-4.94922 z m 427.28906,417.41602 a 183.98766,183.98766 0 0 1 -10.492189,9.25781 l 89.052739,89.05274 -2.76758,19.875 24.49219,24.49414 24.49414,24.49414 3.97656,-28.54297 28.54297,-3.97657 -24.49414,-24.49414 -24.49414,-24.49218 -19.875,2.76758 z"
       transform="scale(0.26458333)"
       inkscape:export-xdpi="96"
       inkscape:export-ydpi="96" />
    <path
       id="circle923"
       style="color:#000000;font-style:normal;font-variant:normal;font-weight:normal;font-stretch:normal;font-size:medium;line-height:normal;font-family:sans-serif;font-variant-ligatures:normal;font-variant-position:normal;font-variant-caps:normal;font-variant-numeric:normal;font-variant-alternates:normal;font-variant-east-asian:normal;font-feature-settings:normal;font-variation-settings:normal;text-indent:0;text-align:start;text-decoration:none;text-decoration-line:none;text-decoration-style:solid;text-decoration-color:#000000;letter-spacing:normal;word-spacing:normal;text-transform:none;writing-mode:lr-tb;direction:ltr;text-orientation:mixed;dominant-baseline:auto;baseline-shift:baseline;text-anchor:start;white-space:normal;shape-padding:0;shape-margin:0;inline-size:0;clip-rule:nonzero;display:inline;overflow:visible;visibility:visible;opacity:1;isolation:auto;mix-blend-mode:normal;color-interpolation:sRGB;color-interpolation-filters:linearRGB;solid-color:#000000;solid-opacity:1;vector-effect:none;fill:#1a1a1a;fill-opacity:1;fill-rule:nonzero;stroke:none;stroke-width:3.77953;stroke-linecap:butt;stroke-linejoin:miter;stroke-miterlimit:4;stroke-dasharray:none;stroke-dashoffset:0;stroke-opacity:1;color-rendering:auto;image-rendering:auto;shape-rendering:auto;text-rendering:auto;enable-background:accumulate;stop-color:#000000;stop-opacity:1"
       d="m -18.667969,166.47656 c -66.203222,0 -127.270961,22.03287 -176.291011,59.14844 l 5.31836,5.31836 c 47.61498,-35.76958 106.808959,-56.9668 170.972651,-56.9668 58.065647,0 112.052895,17.37116 157.082029,47.17969 l 5.38477,-5.38672 C 97.325922,184.64257 41.445606,166.47656 -18.667969,166.47656 Z m 233.236329,116.0918 -5.31836,5.31836 c 35.77103,47.61498 56.9707,106.80701 56.9707,170.9707 0,64.16462 -21.20068,123.35977 -56.97265,170.97656 l 5.31836,5.31836 c 37.11803,-49.02189 59.15429,-110.09071 59.15429,-176.29492 0,-66.20322 -22.03531,-127.269 -59.15234,-176.28906 z m -476.32617,13.82812 c -31.12641,46.47136 -49.29297,102.34795 -49.29297,162.46094 0,60.11397 18.1676,115.99371 49.29492,162.4668 l 5.38477,-5.38477 c -29.80832,-45.02903 -47.17969,-99.01661 -47.17969,-157.08203 0,-58.06445 17.37033,-112.04886 47.17773,-157.07617 z m 72.11719,390.38086 -5.31836,5.31836 c 49.02005,37.11703 110.087789,59.15235 176.291011,59.15235 60.113575,0 115.993891,-18.16864 162.466799,-49.29688 l -5.38672,-5.38476 c -45.028755,29.80902 -99.015252,47.18164 -157.080079,47.18164 -64.163692,0 -123.357671,-21.19967 -170.972651,-56.97071 z"
       transform="scale(0.26458333)"
       inkscape:export-xdpi="96"
       inkscape:export-ydpi="96" />
    <path
       id="circle938"
       style="opacity:1;fill:#1a1a1a;stroke:none;stroke-width:14;stroke-miterlimit:4;stroke-dasharray:none"
       d="m 198.83984,344.94165 -28.68359,15.95898 c 1.6614,2.97217 3.25356,5.97801 4.77344,9.01563 l 29.34765,-14.61133 c -1.73253,-3.4948 -3.54677,-6.95061 -5.4375,-10.36328 z m -438.81054,7.10937 c -1.78239,3.46983 -3.48512,6.98119 -5.10547,10.5293 l 29.77539,13.65625 c 1.41918,-3.07945 2.91397,-6.13061 4.47851,-9.14844 z m 447.71289,10.53125 -29.77539,13.6543 c 1.41916,3.07946 2.76301,6.18868 4.03125,9.32422 l 30.35547,-12.22461 c -1.45273,-3.62084 -2.99101,-7.20579 -4.61133,-10.75391 z m -456.04688,7.38281 c -1.5055,3.5988 -2.92764,7.2327 -4.26172,10.90039 l 30.72266,11.21094 c 1.16106,-3.17083 2.40097,-6.31691 3.7168,-9.43555 z m 463.53711,10.90235 -30.72265,11.20898 c 1.16104,3.17087 2.24342,6.36647 3.24414,9.58399 l 31.21679,-9.69336 c -1.15705,-3.731 -2.40423,-7.43192 -3.73828,-11.09961 z m -470.42969,7.62304 c -1.21275,3.71188 -2.33721,7.4552 -3.36914,11.22657 l 31.52735,8.62109 c 0.88707,-3.24639 1.85892,-6.47222 2.91015,-9.67578 z m 476.42969,11.22852 -31.52734,8.62109 c 0.88704,3.24643 1.68893,6.51326 2.40625,9.79688 l 31.93945,-7.02149 c -0.84549,-3.82529 -1.78646,-7.62512 -2.81836,-11.39648 z m -481.79883,7.83008 c -0.90412,3.80912 -1.71579,7.6447 -2.42968,11.5039 l 32.1914,5.89063 c 0.5972,-3.30607 1.28198,-6.59649 2.05274,-9.86914 z m 486.22852,11.50586 -32.19141,5.89062 c 0.59717,3.30607 1.1054,6.62706 1.52344,9.96094 l 32.51758,-4.20508 c -0.51806,-3.90368 -1.13575,-7.78728 -1.84961,-11.64648 z m -489.99414,8.00586 c -0.57962,3.89045 -1.06143,7.80321 -1.44141,11.73437 l 32.71094,3.01563 c 0.29145,-3.34984 0.67598,-6.68784 1.15039,-10.01367 z m 492.77148,11.73633 -32.71093,3.01562 c 0.29143,3.34983 0.48891,6.70985 0.59179,10.07812 l 32.95313,-1.24609 c -0.17475,-3.96627 -0.45403,-7.91649 -0.83399,-11.84765 z m -494.85351,8.14648 c -0.23925,3.95592 -0.37406,7.9288 -0.4043,11.91602 h 33.08789 c -0.0302,-3.37773 0.037,-6.7482 0.19922,-10.11133 z m 462.81054,11.91797 c 0.0302,3.37776 -0.037,6.74819 -0.19921,10.11133 l 32.88281,1.80468 c 0.23921,-3.95591 0.37406,-7.9288 0.4043,-11.91601 z m -430.05273,6.96875 -32.95117,1.24804 c 0.17476,3.96624 0.45402,7.91654 0.83398,11.84766 l 32.71094,-3.01562 c -0.29142,-3.34984 -0.49087,-6.7118 -0.59375,-10.08008 z m 429.38477,10.08008 c -0.29144,3.34983 -0.67599,6.68784 -1.1504,10.01367 l 32.41993,4.73633 c 0.57961,-3.89046 1.06143,-7.80322 1.4414,-11.73438 z m -428.0586,6.90429 -32.51562,4.20703 c 0.51806,3.90373 1.13573,7.78534 1.84961,11.64454 l 32.1914,-5.88868 c -0.59718,-3.30606 -1.10734,-6.629 -1.52539,-9.96289 z m 425.80078,9.96289 c -0.59718,3.30607 -1.28198,6.59649 -2.05273,9.86914 l 31.81445,7.5254 c 0.90412,-3.80913 1.7158,-7.64471 2.42969,-11.50391 z m -422.91797,6.8086 -31.9375,7.02148 c 0.84551,3.8253 1.78646,7.62512 2.81836,11.39649 l 31.52735,-8.6211 c -0.88705,-3.24638 -1.69088,-6.51322 -2.40821,-9.79687 z m 419.15039,9.79687 c -0.88705,3.24639 -1.85698,6.47222 -2.9082,9.67578 l 31.06836,10.17188 c 1.21275,-3.71191 2.33723,-7.4552 3.36914,-11.22656 z m -414.79101,6.67774 -31.2168,9.69531 c 1.15706,3.731 2.40423,7.43192 3.73828,11.09961 l 30.72266,-11.21094 c -1.16105,-3.17087 -2.24342,-6.36647 -3.24414,-9.58398 z m 409.59766,9.58398 c -1.16106,3.17084 -2.40099,6.31882 -3.7168,9.4375 l 30.17773,12.67383 c 1.5055,-3.59879 2.92765,-7.2327 4.26172,-10.90039 z m -403.84375,6.51758 -30.35352,12.22266 c 1.45274,3.62086 2.99099,7.20775 4.61133,10.75585 l 29.77539,-13.65624 c -1.41917,-3.07945 -2.76496,-6.18677 -4.0332,-9.32227 z m 397.30078,9.32422 c -1.41918,3.07944 -2.91399,6.12864 -4.47852,9.14648 l 29.14844,15.03711 c 1.78237,-3.46979 3.48512,-6.98119 5.10547,-10.5293 z m -390.23047,6.32031 -29.34766,14.61133 c 1.73254,3.49481 3.54481,6.94864 5.43555,10.36133 l 28.68555,-15.95703 c -1.66142,-2.97215 -3.25355,-5.97802 -4.77344,-9.01563 z"
       transform="scale(0.26458333)"
       sodipodi:nodetypes="cccccccccccccccccccccccccccccccccccccccccccccccccccccccccccccccccccccccccccccccccccccccccccccccccccccccccccccccccccccccc"
       inkscape:export-xdpi="96"
       inkscape:export-ydpi="96" />
    <path
       id="rect940"
       style="opacity:0.507142;fill:#ff0000;stroke:none;stroke-width:1.98438;stroke-miterlimit:4;stroke-dasharray:none"
       d="m 408.57758,62.844841 h 2.90359 v 8.754534 h -2.90359 z" />
    <path
       style="opacity:1;fill:#1a1a1a;stroke:none;stroke-width:1.98438;stroke-miterlimit:4;stroke-dasharray:none"
       d="m -116.65033,100.21074 9.73688,21.4235 -9.73688,21.42298 h 37.425616 c -1.958819,-6.80369 -3.00912,-13.99136 -3.00912,-21.42402 0,-7.43214 1.050073,-14.61936 3.008601,-21.42246 z"
       id="rect971"
       inkscape:export-xdpi="96"
       inkscape:export-ydpi="96" />
    <path
       style="opacity:1;fill:#1a1a1a;stroke:none;stroke-width:1.98438;stroke-miterlimit:4;stroke-dasharray:none"
       d="m 106.82001,142.79785 -9.736877,-21.4235 9.736877,-21.422975 H 69.394386 c 1.95882,6.803685 3.00912,13.991355 3.00912,21.424015 0,7.43214 -1.05007,14.61936 -3.0086,21.42246 z"
       id="path981"
       inkscape:export-xdpi="96"
       inkscape:export-ydpi="96" />
    <text
       xml:space="preserve"
       style="font-size:21.8771px;line-height:1.25;font-family:Ubuntu;-inkscape-font-specification:Ubuntu;fill:#f2f2f2;stroke-width:0.264583;opacity:1;"
       x="-105.18976"
       y="129.21439"
       id="text992"
       inkscape:export-xdpi="96"
       inkscape:export-ydpi="96"><tspan
         sodipodi:role="line"
         id="tspan990"
         x="-105.18976"
         y="129.21439"
         style="fill:#f2f2f2;stroke-width:0.264583;">A</tspan></text>
    <text
       xml:space="preserve"
       style="font-size:21.8771px;line-height:1.25;font-family:Ubuntu;-inkscape-font-specification:Ubuntu;fill:#f2f2f2;stroke-width:0.264583;opacity:1;"
       x="77.350746"
       y="129.21439"
       id="text996"
       inkscape:export-xdpi="96"
       inkscape:export-ydpi="96"><tspan
         sodipodi:role="line"
         id="tspan994"
         x="77.350746"
         y="129.21439"
         style="fill:#f2f2f2;stroke-width:0.264583;">A</tspan></text>
    <g
       aria-label="Hello"
       id="text1002"
       style="font-size:10.5833px;line-height:1.25;font-family:Ubuntu;-inkscape-font-specification:Ubuntu;letter-spacing:0.264583px;stroke-width:0.264583;opacity:1"
       inkscape:export-xdpi="96"
       inkscape:export-ydpi="96">
      <path
         d="m -12.700549,57.890793 1.014935,-0.154189 1.101577,7.251028 -1.014935,0.154189 -0.508665,-3.348238 -3.547039,0.538867 0.508664,3.348238 -1.014934,0.154189 -1.101577,-7.251028 1.014935,-0.154189 0.459387,3.023877 3.54704,-0.538866 z"
         style="stroke-width:0.264583"
         id="path1011" />
      <path
         d="m -8.9461839,62.116997 q -0.020601,-0.729957 0.1757539,-1.275462 0.1960564,-0.556083 0.5350151,-0.925625 0.3389586,-0.369542 0.7887838,-0.562224 0.4498252,-0.192683 0.9258841,-0.206119 1.1108042,-0.03135 1.7229383,0.650151 0.6118357,0.670921 0.6518434,2.088519 0.00179,0.06347 0.00478,0.169265 0.00269,0.09521 -0.0055,0.180143 l -3.7661551,0.106289 q 0.087658,0.855115 0.5339406,1.287196 0.4462823,0.43208 1.3666629,0.406105 0.5183753,-0.01463 0.8650966,-0.109115 0.3570019,-0.105363 0.5344579,-0.195071 l 0.1608162,0.821287 q -0.1771574,0.100288 -0.6290725,0.218917 -0.441336,0.11833 -1.0126068,0.134453 -0.7193779,0.0203 -1.2543036,-0.176351 -0.5246451,-0.207531 -0.8739242,-0.578824 -0.3492792,-0.371294 -0.5331743,-0.884892 -0.1736145,-0.524476 -0.1912298,-1.148642 z m 3.7615074,-0.646121 q -0.00823,-0.666781 -0.369283,-1.080092 -0.350772,-0.424188 -0.95378,-0.40717 -0.3385308,0.0096 -0.5991266,0.154546 -0.2503153,0.134115 -0.4241885,0.350772 -0.1738732,0.216657 -0.2719014,0.494699 -0.087449,0.277744 -0.1111251,0.564275 z"
         style="stroke-width:0.264583"
         id="path1013" />
      <path
         d="M -0.74030832,65.013667 Q -1.6479525,64.942757 -2.0081238,64.55206 -2.3682952,64.161363 -2.3254655,63.37937 l 0.3611582,-6.594096 0.99203442,-0.115253 -0.36173702,6.604664 q -0.013312,0.243052 0.020276,0.403879 0.033588,0.160827 0.1234863,0.261143 0.089898,0.100316 0.24551613,0.161835 0.15619681,0.05095 0.38694463,0.09539 z"
         style="stroke-width:0.264583"
         id="path1015" />
      <path
         d="M 2.3913818,65.332806 Q 1.4891454,65.211087 1.15146,64.800799 0.81377469,64.390511 0.90040798,63.612153 l 0.73052932,-6.563449 0.9969379,-0.05942 -0.7317001,6.573968 q -0.026927,0.241922 -0.00241,0.40438 0.024513,0.162458 0.1086412,0.267659 0.084129,0.105202 0.2360503,0.175355 0.1530923,0.05963 0.3809838,0.116945 z"
         style="stroke-width:0.264583"
         id="path1017" />
      <path
         d="M 9.1996835,63.657336 Q 9.0714183,64.300842 8.7811543,64.78256 8.4908903,65.264278 8.0739024,65.569657 7.6672937,65.877104 7.158857,65.991591 6.6524891,66.095698 6.1023953,65.986052 5.5523014,65.876406 5.1245477,65.586107 4.6988628,65.285429 4.4308281,64.84351 4.1731725,64.40366 4.0897879,63.847465 q -0.083385,-0.556195 0.044881,-1.199701 0.1261964,-0.633127 0.4164604,-1.114845 0.2923328,-0.492097 0.6989415,-0.799544 0.4169879,-0.305379 0.9233558,-0.409486 0.5084367,-0.114487 1.0585305,-0.0048 0.5500939,0.109646 0.9757788,0.410324 0.4277537,0.290299 0.6854093,0.730149 0.2680347,0.441919 0.3493505,1.008493 0.083385,0.556195 -0.042812,1.189322 z M 8.192908,63.456663 Q 8.3749619,62.543299 8.0653052,61.931212 7.7680964,61.310814 7.0623156,61.170136 6.3565348,61.029458 5.8337924,61.486421 5.3234979,61.935074 5.141444,62.848437 q -0.1820539,0.913364 0.1151549,1.533761 0.3096567,0.612088 1.0154375,0.752766 0.7057807,0.140678 1.2160753,-0.307975 0.5227424,-0.456963 0.7047963,-1.370326 z"
         style="stroke-width:0.264583"
         id="path1019" />
    </g>
    <g
       aria-label="World"
       id="text1006"
       style="font-size:10.5833px;line-height:1.25;font-family:Ubuntu;-inkscape-font-specification:Ubuntu;letter-spacing:0.264583px;stroke-width:0.264583;opacity:1"
       inkscape:export-xdpi="96"
       inkscape:export-ydpi="96">
      <path
         d="m -13.610197,182.3877 q -0.644188,1.33932 -1.268351,2.46766 -0.624164,1.12834 -1.239179,2.19384 l -1.015869,-0.1479 q -0.321764,-1.68317 -0.491932,-3.52608 -0.159695,-1.84138 -0.221281,-3.98932 l 1.068234,0.15553 q 0.02768,0.83823 0.06584,1.67799 0.03816,0.83976 0.09289,1.63915 0.05625,0.78891 0.121657,1.51499 0.0654,0.72608 0.156527,1.34896 0.579021,-1.03866 1.240904,-2.27915 0.663407,-1.25097 1.276176,-2.59487 l 0.879721,0.12809 q 0.204116,1.46283 0.493741,2.85256 0.291149,1.37925 0.549957,2.53989 0.252957,-0.56208 0.522686,-1.23937 0.269729,-0.67728 0.538134,-1.41893 0.280403,-0.75059 0.556433,-1.54461 0.277554,-0.80448 0.5431108,-1.60002 l 1.0368147,0.15096 q -0.6819884,2.03968 -1.3705965,3.75755 -0.678135,1.7194 -1.456023,3.24246 l -1.015869,-0.14791 q -0.296126,-1.19816 -0.562156,-2.45611 -0.266031,-1.25795 -0.501565,-2.72536 z"
         style="stroke-width:0.264583"
         id="path1025" />
      <path
         d="m -3.6530982,185.27909 q -0.014292,0.656 -0.2162729,1.18089 -0.2019804,0.52489 -0.5594453,0.8982 -0.346884,0.37353 -0.82763,0.57477 -0.4805155,0.19066 -1.0412973,0.17844 -0.5607818,-0.0122 -1.0325373,-0.22362 -0.471525,-0.22199 -0.8123922,-0.61051 -0.3302864,-0.38828 -0.5092144,-0.92147 -0.178928,-0.53319 -0.1646355,-1.1892 0.014062,-0.64543 0.2160423,-1.17032 0.2022109,-0.53547 0.549095,-0.909 0.3574649,-0.3733 0.8379803,-0.56396 0.480746,-0.20125 1.0415278,-0.18903 0.5607818,0.0122 1.0323068,0.23421 0.4717555,0.21141 0.8020419,0.59969 0.3408672,0.38852 0.5195647,0.93229 0.178928,0.53319 0.1648661,1.17862 z m -1.0263366,-0.0224 q 0.020286,-0.93111 -0.3911887,-1.47995 -0.4006635,-0.55919 -1.1201572,-0.57486 -0.7194936,-0.0157 -1.1547124,0.5253 -0.4244075,0.53063 -0.4446935,1.46174 -0.020286,0.93111 0.3803774,1.4903 0.4114749,0.54884 1.1309685,0.56452 0.7194936,0.0157 1.1439011,-0.51496 0.4352188,-0.54098 0.4555048,-1.47209 z"
         style="stroke-width:0.264583"
         id="path1027" />
      <path
         d="m -0.37231818,182.20957 q 0.12676873,-0.008 0.28650534,0.004 0.16966282,3.6e-4 0.33003729,0.0225 0.15973661,0.0116 0.2884189,0.0356 0.13860849,0.0128 0.20326856,0.0301 l -0.11735884,0.86589 q -0.11875608,-0.0352 -0.39661092,-0.0715 -0.26792863,-0.0474 -0.69049105,-0.0219 -0.27466558,0.0166 -0.545504,0.0966 -0.2609123,0.0688 -0.3441491,0.095 l 0.278742,4.6165 -0.9824577,0.0593 -0.3176509,-5.26091 q 0.3409597,-0.14781 0.8522202,-0.28471 0.5106225,-0.14746 1.15503022,-0.18637 z"
         style="stroke-width:0.264583"
         id="path1029" />
      <path
         d="M 3.9266587,187.51921 Q 3.020256,187.60453 2.5985865,187.28117 2.1769171,186.95781 2.08541,186.18001 l -0.7716269,-6.55875 0.9577199,-0.28317 0.7728635,6.56926 q 0.028441,0.24174 0.089033,0.39446 0.060592,0.15272 0.1663185,0.23618 0.1057265,0.0835 0.2695715,0.11748 0.1626085,0.0235 0.397556,0.0278 z"
         style="stroke-width:0.264583"
         id="path1031" />
      <path
         d="m 8.0793139,182.29487 q -0.2046727,-0.1115 -0.563235,-0.18261 -0.3585623,-0.0711 -0.7534824,0.005 -0.4157053,0.08 -0.687094,0.29388 -0.2629958,0.20149 -0.3980672,0.50769 -0.1370712,0.29582 -0.1502175,0.67556 -0.013146,0.37974 0.066848,0.79544 0.1819862,0.94573 0.7496472,1.37537 0.5656611,0.41925 1.3451086,0.26926 0.3949201,-0.076 0.6487364,-0.15717 0.2622091,-0.0936 0.3997066,-0.16313 z m -0.6999471,-3.63742 0.9345173,-0.35227 1.521885,7.90879 q -0.3145656,0.15753 -0.8161987,0.35106 -0.501633,0.19353 -1.1771542,0.32352 -0.623558,0.11999 -1.1604016,0.0185 -0.5368435,-0.10147 -0.9601878,-0.39722 -0.4233442,-0.29574 -0.7207967,-0.77738 -0.2890597,-0.49402 -0.4150502,-1.14876 -0.1199909,-0.62356 -0.064094,-1.17319 0.06629,-0.55163 0.3060742,-0.98576 0.2397844,-0.43413 0.6466707,-0.72797 0.4172789,-0.29585 0.9992664,-0.40784 0.4676685,-0.09 0.8450163,-0.0333 0.3877403,0.0547 0.5864134,0.13504 z"
         style="stroke-width:0.264583"
         id="path1033" />
    </g>
    <path
       id="path875"
       style="opacity:1;fill:#000000;fill-opacity:1;stroke:none;stroke-width:1.98439"
       inkscape:transform-center-x="-0.22349077"
       inkscape:transform-center-y="-3.167439"
       d="M 15.05799,153.63544 -26.552101,152.78526 -38.601744,112.94899 -4.4387459,89.17901 28.724791,114.32462 Z"
       inkscape:export-xdpi="96"
       inkscape:export-ydpi="96" />
    <path
       id="path877"
       style="opacity:1;fill:#ffffff;fill-opacity:1;stroke:none;stroke-width:1.98438"
       inkscape:transform-center-x="0.091665383"
       inkscape:transform-center-y="-2.1884645"
       d="m 9.4006216,142.70091 -14.0991067,-7.18978 -13.9157699,7.53851 2.481026,-15.63081 -11.469759,-10.90516 15.632465,-2.47059 6.8270691,-14.278268 7.1803691,14.103908 15.6891198,2.0807 -11.1947532,11.18728 z"
       inkscape:export-xdpi="96"
       inkscape:export-ydpi="96" />
  </g>
</svg>
